Coordinates
version=1
nRows=29
nColumns=24
inDegrees=yes

Units are S.I. units (second, meters, Newtons, ...)
Angles are in degrees.

endheader
time	torso_tilt	torso_list	torso_rotation	torso_tx	torso_ty	torso_tz	lumbar_extension	lumbar_bending	lumbar_rotation	hip_flexion_r	hip_adduction_r	hip_rotation_r	knee_angle_r	ankle_angle_r	subtalar_angle_r	mtp_angle_r	hip_flexion_l	hip_adduction_l	hip_rotation_l	knee_angle_l	ankle_angle_l	subtalar_angle_l	mtp_angle_l
     43.78000000	    -15.56342808	     -0.10196579	     13.17035349	     -0.03145314	      1.28766932	      0.04275550	      8.00651185	      0.84413461	     -8.35476147	     -7.81382109	      2.56829442	    -10.31581763	    -31.12629980	    -24.65472985	     -1.70288350	      0.00000000	     26.08178394	      7.92507000	      7.39120285	    -22.34284559	     15.51022603	      4.63132636	      0.00000000
     43.79000000	    -15.43785541	     -0.14511734	     13.31180751	     -0.03197867	      1.28564529	      0.04176366	      7.83700296	      0.60261673	     -8.12217766	     -7.31252313	      2.80778353	    -10.55454864	    -35.12076076	    -25.00494987	     -0.20063713	      0.00000000	     25.04438721	      7.84037052	      8.57362746	    -17.48839808	     15.56442150	      4.20728696	      0.00000000
     43.80000000	    -15.29891320	     -0.24943077	     13.27628537	     -0.03279554	      1.28263695	      0.04071633	      7.72405175	      0.60036617	     -7.80904742	     -6.67134201	      2.86496097	    -10.69579334	    -39.42399577	    -25.12836481	      0.85254016	      0.00000000	     24.13204779	      7.84558122	      9.56330245	    -13.46261703	     15.42748144	      3.01489355	      0.00000000
     43.81000000	    -15.20195349	     -0.35371598	     13.15728323	     -0.03386193	      1.27848317	      0.03970241	      7.93301484	      0.64112940	     -7.43277094	     -6.27703336	      2.77616293	    -10.97048638	    -43.83555960	    -24.91780070	      1.49983659	      0.00000000	     23.08555208	      7.92848385	     10.31567452	    -10.37534207	     15.56806911	      1.73920220	      0.00000000
     43.82000000	    -15.16198416	     -0.44848449	     13.04206507	     -0.03487331	      1.27313205	      0.03892168	      8.39708781	      0.73343816	     -7.07000892	     -6.04283847	      2.51010369	    -11.30352598	    -48.29372479	    -24.56701020	      2.13912305	      0.00000000	     22.13327592	      8.15366924	     10.68334281	     -8.59136732	     15.66704105	      0.49230834	      0.00000000
     43.83000000	    -15.10786966	     -0.50408465	     12.80688120	     -0.03611127	      1.26680225	      0.03801896	      9.08150889	      0.79157882	     -6.65175922	     -6.07866284	      2.10460001	    -11.66641511	    -52.73929823	    -23.96317240	      3.15136636	      0.00000000	     21.21954160	      8.47718246	     10.64257109	     -8.14543635	     15.74109935	      1.02838944	      0.00000000
     43.84000000	    -15.06310476	     -0.53706550	     12.55611518	     -0.03753521	      1.25982842	      0.03712026	      9.87172104	      0.96057408	     -6.16799187	     -6.19445934	      1.39238075	    -12.23003214	    -57.21968594	    -23.16139815	      4.61773633	      0.00000000	     20.59428675	      8.99580204	     10.30430767	     -9.20881358	     15.35314986	      1.57318997	      0.00000000
     43.85000000	    -14.99863389	     -0.62143953	     12.24176374	     -0.03901797	      1.25199420	      0.03641226	     10.69055955	      1.40873799	     -5.49120553	     -6.30010614	      0.36937487	    -12.96201087	    -61.74428737	    -21.66523438	      6.28268831	      0.00000000	     20.23303799	      9.77874614	      9.96511025	    -11.58370900	     12.39940457	      0.66408802	      0.00000000
     43.86000000	    -14.97891356	     -0.65460983	     11.84817941	     -0.04062904	      1.24295097	      0.03563260	     11.70760595	      1.72307638	     -4.75338505	     -6.57992320	     -0.66503041	    -13.76455030	    -66.24328248	    -19.85461438	      7.50141420	      0.00000000	     19.90491210	     10.49899535	      9.03549010	    -15.06530112	      9.00800094	      0.07520282	      0.00000000
     43.87000000	    -14.96622841	     -0.67231635	     11.47640200	     -0.04221979	      1.23328906	      0.03498050	     12.78877156	      2.05850560	     -4.06065487	     -6.92856653	     -1.80625651	    -14.59857180	    -70.64370943	    -17.93785546	      8.01902677	      0.00000000	     19.54389145	     11.17133321	      7.85312436	    -18.80433995	      7.01405539	     -1.65025880	      0.00000000
     43.88000000	    -15.03710495	     -0.73118245	     10.93587000	     -0.04412556	      1.22307646	      0.03419542	     13.80681166	      2.64138069	     -3.07930996	     -6.93924241	     -3.22973239	    -15.62320225	    -75.21286677	    -15.86107713	      8.13621338	      0.00000000	     19.61432848	     12.16795860	      6.81153264	    -23.33459205	      9.67073622	     -1.87236553	      0.00000000
     43.89000000	    -15.23110514	     -0.87630446	     10.20826372	     -0.04634977	      1.21266453	      0.03331681	     14.57553645	      3.29970873	     -1.64247218	     -6.40296149	     -4.55801709	    -16.89794670	    -79.79696025	    -13.51726254	      7.39867403	      0.00000000	     20.63363581	     13.09300430	      5.50095993	    -29.21071334	     14.71583467	     -0.48305062	      0.00000000
     43.90000000	    -15.56534625	     -1.07984728	      9.33985110	     -0.04843335	      1.20277140	      0.03239661	     15.20590065	      3.88287976	      0.05739067	     -5.46546814	     -5.63219486	    -18.06659514	    -84.15725441	    -10.81870190	      6.52019672	      0.00000000	     22.05796122	     13.81186727	      4.87726088	    -35.28419682	     18.79427560	      0.62439838	      0.00000000
     43.91000000	    -16.06069909	     -1.29438238	      8.55580580	     -0.05017653	      1.19408949	      0.03184223	     16.13366661	      4.25740746	      1.57102346	     -4.59488667	     -6.35830972	    -18.96042149	    -87.97777043	     -7.69544825	      5.48314052	      0.00000000	     22.88391655	     14.30240958	      5.10210517	    -40.72588147	     22.71873369	      2.13907773	      0.00000000
     43.92000000	    -16.77483022	     -1.46813089	      7.84626086	     -0.05155470	      1.18634749	      0.03202492	     17.81430653	      4.59521996	      2.76882198	     -4.18192601	     -6.99154899	    -19.53305435	    -91.18809837	     -4.54104040	      4.50311359	      0.00000000	     22.26578038	     14.67363768	      5.77188659	    -44.59649097	     25.58775764	      2.96342872	      0.00000000
     43.93000000	    -17.37241904	     -1.63565348	      7.40581534	     -0.05267605	      1.18004675	      0.03247994	     19.34503880	      4.96365017	      3.37817684	     -3.59796055	     -7.62726686	    -19.68882702	    -93.88837581	     -1.64166330	      3.39985716	      0.00000000	     20.90054637	     14.95478990	      6.47031927	    -47.02157301	     27.89065232	      3.14855929	      0.00000000
     43.94000000	    -17.69949372	     -1.79719828	      6.89897994	     -0.05380348	      1.17596511	      0.03284642	     19.77178068	      5.15876325	      3.75413732	     -1.81942874	     -7.93027247	    -19.37085478	    -96.22949749	      0.83508639	      2.03623721	      0.00000000	     19.88945440	     14.78081822	      6.91517242	    -48.38050622	     29.81608613	      3.08998110	      0.00000000
     43.95000000	    -17.86993779	     -1.86629206	      6.16829480	     -0.05492468	      1.17372071	      0.03328997	     19.51087079	      5.20842277	      4.06225554	      0.76436862	     -7.98335743	    -18.63940843	    -98.14873497	      3.13298839	      0.39765145	      0.00000000	     18.99504189	     14.29787146	      7.21410310	    -48.91407312	     31.28978973	      2.89738903	      0.00000000
     43.96000000	    -17.89284201	     -1.87480016	      5.19962697	     -0.05562493	      1.17338176	      0.03386579	     18.99568380	      5.21690363	      4.39511737	      3.43578320	     -7.79146672	    -17.66439749	    -99.34597108	      5.20575126	     -1.21422501	      0.00000000	     17.82846743	     13.48588924	      7.10839372	    -48.85228620	     32.87891341	      3.37880603	      0.00000000
     43.97000000	    -17.94044547	     -1.78164048	      4.04361059	     -0.05620003	      1.17471300	      0.03454038	     18.14396351	      5.00746926	      4.85996207	      6.66119722	     -7.29999571	    -16.49511771	    -99.97725682	      7.04102381	     -2.78548508	      0.00000000	     16.84399995	     12.35040826	      6.63633379	    -48.23675333	     34.12912981	      4.04932145	      0.00000000
     43.98000000	    -18.09086520	     -1.56930618	      2.77857776	     -0.05683459	      1.17766330	      0.03528778	     17.33405971	      4.71737060	      5.22037871	     10.07847231	     -6.78133095	    -15.04597590	   -100.06255504	      8.31195554	     -4.14231414	      0.00000000	     15.65348249	     11.16242810	      5.81687476	    -46.83424783	     34.77459159	      4.52075064	      0.00000000
     43.99000000	    -18.30949054	     -1.16566873	      1.50909699	     -0.05756033	      1.18167462	      0.03640928	     16.68251791	      4.13918336	      5.49943434	     13.40591345	     -6.07400197	    -13.58374730	    -99.47088259	      9.31356311	     -5.24901583	      0.00000000	     14.25140496	      9.83203806	      4.66720726	    -45.10947970	     35.31469008	      5.43570767	      0.00000000
     44.00000000	    -18.54517229	     -0.72216203	      0.10259535	     -0.05841001	      1.18644970	      0.03753013	     16.20262981	      3.44185606	      5.89445206	     16.46740779	     -5.11718668	    -12.19236810	    -98.22775165	      9.74332808	     -5.77954351	      0.00000000	     12.57721870	      8.41294648	      3.42226597	    -43.05707131	     35.18657780	      6.19894936	      0.00000000
     44.01000000	    -18.61320237	     -0.30498882	     -1.51824258	     -0.05927410	      1.19254733	      0.03857372	     15.82206981	      2.68532016	      6.43902709	     18.92459624	     -3.82193452	    -10.93568357	    -96.17549082	     10.36246424	     -6.14737255	      0.00000000	     10.35919353	      6.87571545	      2.20767288	    -40.50443399	     34.33755436	      6.79956914	      0.00000000
     44.02000000	    -18.58656957	      0.14288580	     -3.14706060	     -0.05976275	      1.19961264	      0.03989582	     15.58728793	      1.77278610	      7.06887327	     20.80818895	     -2.25321452	     -9.67530316	    -93.20462810	     10.98841416	     -5.80755490	      0.00000000	      7.69224406	      5.25271855	      1.05453234	    -37.53881907	     32.77444524	      7.39721865	      0.00000000
     44.03000000	    -18.48172754	      0.60368894	     -4.80889940	     -0.06004281	      1.20750228	      0.04121391	     15.28321961	      0.87378938	      7.83543274	     22.38952238	     -0.73091073	     -8.65452022	    -89.61285881	     11.43986027	     -5.44220656	      0.00000000	      4.97194203	      3.81332272	     -0.02256972	    -34.34161756	     30.11531126	      7.69943512	      0.00000000
     44.04000000	    -18.23804810	      1.05533976	     -6.33421511	     -0.05979812	      1.21612229	      0.04261713	     14.79755461	     -0.11794990	      8.56711538	     23.67951485	      0.83396469	     -7.84834475	    -85.43501933	     11.90274810	     -5.32760074	      0.00000000	      2.32667671	      2.45931931	     -1.04499770	    -31.03712158	     26.55931594	      7.68735687	      0.00000000
     44.05000000	    -17.95655772	      1.47994633	     -7.72641033	     -0.05923583	      1.22517250	      0.04400486	     14.36636186	     -1.04022283	      9.25008975	     24.55665378	      2.24748922	     -7.16927045	    -80.67139926	     11.67631184	     -5.41924344	      0.00000000	     -0.32557532	      1.30946472	     -2.06537889	    -27.78236966	     22.66940454	      8.16657004	      0.00000000
     44.06000000	    -17.57099685	      1.90144619	     -9.07714889	     -0.05859725	      1.23425060	      0.04542062	     13.82610887	     -1.96851774	     10.04555499	     25.17461940	      3.52488482	     -6.72302681	    -75.39963019	     11.56038529	     -5.63983319	      0.00000000	     -2.76005638	      0.31382844	     -2.86404767	    -24.75863864	     18.24511159	      8.53897271	      0.00000000
